<svg width="40" height="40" viewBox="0 0 40 40" fill="none" xmlns="http://www.w3.org/2000/svg">
<rect width="40" height="40" rx="20" fill="#19AFDD"/>
<path d="M20.9988 12.7036C20.8329 12.2786 20.4368 12 20 12C19.5632 12 19.1671 12.2786 19.0012 12.7036L14.9381 22.9899L13.5838 26.4187C13.3535 27.0009 13.6142 27.6688 14.1661 27.9116C14.718 28.1545 15.3512 27.8795 15.5814 27.2973L16.6581 24.5722H23.3419L24.4186 27.2973C24.6488 27.8795 25.282 28.1545 25.8339 27.9116C26.3858 27.6688 26.6465 27.0009 26.4162 26.4187L25.0619 22.9899L20.9988 12.7036ZM22.4378 22.2863H17.5622L20 16.1145L22.4378 22.2863Z" fill="white"/>
</svg>
