<svg width="40" height="40" viewBox="0 0 40 40" fill="none" xmlns="http://www.w3.org/2000/svg">
<rect width="40" height="40" rx="20" fill="#333333"/>
<path fill-rule="evenodd" clip-rule="evenodd" d="M12 19.993C12 15.5786 15.5786 12 19.993 12C24.4074 12 27.986 15.5786 27.986 19.993C27.986 21.7886 27.3939 23.4454 26.3948 24.7796L27.6514 26.0368C27.7605 26.1422 27.8475 26.2682 27.9073 26.4075C27.9671 26.5468 27.9986 26.6966 28 26.8482C28.0013 26.9998 27.9724 27.1502 27.915 27.2905C27.8576 27.4309 27.7728 27.5583 27.6656 27.6656C27.5583 27.7728 27.4309 27.8576 27.2905 27.915C27.1502 27.9724 26.9998 28.0013 26.8482 28C26.6966 27.9986 26.5468 27.9671 26.4075 27.9073C26.2682 27.8475 26.1422 27.7605 26.0368 27.6514L24.7796 26.3948C23.3989 27.4302 21.7189 27.9887 19.993 27.986C15.5786 27.986 12 24.4074 12 19.993ZM24.7562 23.1416L23.084 21.4688C22.9779 21.3628 22.852 21.2787 22.7134 21.2214C22.5748 21.164 22.4263 21.1346 22.2763 21.1346C22.1263 21.1347 21.9778 21.1643 21.8393 21.2217C21.7007 21.2791 21.5748 21.3633 21.4688 21.4694C21.3628 21.5755 21.2787 21.7014 21.2214 21.84C21.164 21.9786 21.1346 22.1271 21.1346 22.2771C21.1347 22.58 21.2551 22.8705 21.4694 23.0846L23.1416 24.7562C22.2082 25.3749 21.1128 25.704 19.993 25.7023C16.8398 25.7023 14.2837 23.1462 14.2837 19.993C14.2837 16.8398 16.8398 14.2837 19.993 14.2837C23.1462 14.2837 25.7023 16.8398 25.7023 19.993C25.7023 21.1565 25.354 22.239 24.7562 23.1416Z" fill="white"/>
</svg>
