<svg width="32" height="32" viewBox="0 0 32 32" fill="none" xmlns="http://www.w3.org/2000/svg">
<g id="search">
<path id="Union" fill-rule="evenodd" clip-rule="evenodd" d="M10.2091 17.7517C8.1263 15.6689 8.1263 12.292 10.2091 10.2092C12.2919 8.12644 15.6688 8.12644 17.7516 10.2092C19.8344 12.292 19.8344 15.6689 17.7516 17.7517C15.6688 19.8345 12.2919 19.8345 10.2091 17.7517ZM8.32348 8.32361C5.19929 11.4478 5.19929 16.5131 8.32348 19.6373C11.1264 22.4403 15.4919 22.7285 18.6162 20.5019L23.4793 25.3651L25.3649 23.4795L20.5018 18.6163C22.7284 15.492 22.4402 11.1266 19.6372 8.32362C16.513 5.19942 11.4477 5.19942 8.32348 8.32361Z" fill="#242424"/>
</g>
</svg>
